<svg xmlns="http://www.w3.org/2000/svg" xmlns:xlink="http://www.w3.org/1999/xlink" width="500" zoomAndPan="magnify" viewBox="0 0 375 374.999991" height="500" preserveAspectRatio="xMidYMid meet" version="1.0"><defs><g/><clipPath id="7ba6927122"><path d="M 135 113.65625 L 239.992188 113.65625 L 239.992188 217.90625 L 135 217.90625 Z M 135 113.65625 " clip-rule="nonzero"/></clipPath></defs><rect x="-37.5" width="450" fill="#ffffff" y="-37.499999" height="449.999989" fill-opacity="1"/><rect x="-37.5" width="450" fill="#ffffff" y="-37.499999" height="449.999989" fill-opacity="1"/><g clip-path="url(#7ba6927122)"><path fill="#231f20" d="M 230.449219 185.945312 C 230.355469 186.144531 230.261719 186.339844 230.167969 186.539062 C 230.140625 186.601562 230.109375 186.660156 230.082031 186.722656 C 229.960938 186.972656 229.839844 187.21875 229.714844 187.464844 C 229.679688 187.535156 229.644531 187.605469 229.609375 187.675781 C 229.539062 187.804688 229.472656 187.9375 229.402344 188.070312 C 224.125 179.242188 216.398438 172.683594 208.421875 169.113281 C 209.640625 166.433594 210.085938 162.164062 206.742188 160.199219 C 202.644531 157.792969 197.328125 160.773438 194.96875 162.347656 C 190.398438 162.164062 185.878906 162.585938 178.632812 166.328125 C 173.96875 168.734375 168.550781 170.011719 164.96875 170.5 C 162.128906 170.886719 160.183594 173.199219 159.617188 176.011719 C 158.777344 180.183594 160.667969 184.195312 162.929688 186.269531 C 166.0625 189.148438 171.234375 189.375 175.890625 190.375 C 178.8125 191 181.214844 191.695312 183.898438 193.675781 C 182.535156 196.875 182.125 200.304688 181.925781 203.5 C 181.765625 205.96875 181.621094 208.242188 180.972656 210.332031 C 180.496094 211.859375 178.933594 212.78125 177.371094 212.449219 L 177.347656 212.441406 C 156.136719 207.78125 140.214844 188.816406 140.214844 166.191406 C 140.214844 140.085938 161.421875 118.84375 187.488281 118.84375 C 213.523438 118.84375 234.601562 139.820312 234.761719 165.898438 C 234.804688 173.050781 233.253906 179.84375 230.449219 185.945312 Z M 239.941406 166.191406 C 239.941406 159.101562 238.554688 152.222656 235.820312 145.742188 C 233.175781 139.484375 229.394531 133.867188 224.578125 129.042969 C 219.761719 124.21875 214.152344 120.429688 207.90625 117.785156 C 201.4375 115.042969 194.566406 113.65625 187.488281 113.65625 C 180.40625 113.65625 173.539062 115.042969 167.070312 117.785156 C 160.824219 120.429688 155.214844 124.21875 150.398438 129.042969 C 145.582031 133.867188 141.796875 139.484375 139.15625 145.742188 C 136.421875 152.222656 135.035156 159.101562 135.035156 166.191406 C 135.035156 173.285156 136.421875 180.164062 139.15625 186.644531 C 141.796875 192.898438 145.582031 198.519531 150.398438 203.34375 C 155.214844 208.167969 160.824219 211.953125 167.070312 214.601562 C 169.597656 215.671875 172.1875 216.535156 174.824219 217.191406 C 174.835938 217.191406 174.84375 217.195312 174.855469 217.199219 C 175.132812 217.265625 175.40625 217.332031 175.683594 217.394531 C 175.730469 217.40625 175.78125 217.417969 175.828125 217.429688 C 175.910156 217.445312 175.992188 217.464844 176.070312 217.484375 L 176.074219 217.480469 L 176.097656 217.488281 C 177.960938 217.902344 179.914062 217.523438 181.5 216.457031 C 183.464844 215.132812 185.6875 212.84375 188.417969 208.050781 C 191.722656 202.25 196.804688 202.921875 196.804688 202.921875 C 193.445312 184.113281 169.582031 188.769531 164.867188 183.484375 C 164.070312 182.589844 162.46875 180.46875 163.035156 178.484375 C 163.550781 176.675781 166.289062 176.378906 166.707031 175.199219 C 166.972656 174.445312 166.117188 174.003906 165.183594 173.878906 C 163.835938 172.996094 172.21875 174.097656 181.199219 169.960938 C 189.703125 166.046875 194.355469 166.945312 196.546875 167.351562 C 198.75 164.25 203.023438 163.550781 204.222656 164.734375 C 205.15625 165.652344 205.1875 168.421875 202.101562 170.570312 C 210.417969 172.210938 223.226562 180.796875 229.132812 198.144531 C 230.015625 196.992188 230.847656 195.804688 231.632812 194.585938 C 231.671875 194.53125 231.703125 194.472656 231.742188 194.417969 C 231.824219 194.285156 231.910156 194.152344 231.992188 194.019531 C 232.089844 193.859375 232.191406 193.699219 232.289062 193.539062 C 232.429688 193.304688 232.570312 193.070312 232.710938 192.832031 C 232.746094 192.769531 232.785156 192.707031 232.820312 192.644531 C 232.996094 192.347656 233.167969 192.046875 233.335938 191.746094 L 233.335938 191.742188 C 234.25 190.097656 235.078125 188.394531 235.820312 186.644531 C 238.554688 180.164062 239.941406 173.285156 239.941406 166.191406 " fill-opacity="1" fill-rule="nonzero"/></g><g fill="#000000" fill-opacity="1"><g transform="translate(110.571025, 246.582581)"><g><path d="M 12.667969 -11.070312 L 5.917969 -11.070312 C 5.578125 -11.070312 5.152344 -11.203125 5.152344 -12.308594 L 5.152344 -13.972656 C 5.152344 -14.378906 5.21875 -14.691406 5.332031 -14.917969 C 5.421875 -15.050781 5.558594 -15.210938 5.941406 -15.210938 L 15.097656 -15.210938 C 15.277344 -15.210938 15.726562 -15.277344 15.726562 -15.976562 L 15.726562 -17.773438 C 15.726562 -18.472656 15.277344 -18.539062 15.097656 -18.539062 L 5.398438 -18.539062 C 4.164062 -18.539062 3.261719 -18.136719 2.675781 -17.300781 C 2.09375 -16.492188 1.800781 -15.414062 1.800781 -14.109375 L 1.800781 -12.398438 C 1.800781 -10.84375 2.113281 -9.585938 2.675781 -8.796875 C 3.375 -7.875 4.410156 -7.738281 5.355469 -7.738281 L 12.105469 -7.738281 C 12.441406 -7.738281 12.890625 -7.605469 12.890625 -6.503906 L 12.890625 -4.566406 C 12.890625 -4.164062 12.824219 -3.847656 12.691406 -3.621094 C 12.601562 -3.488281 12.464844 -3.328125 12.082031 -3.328125 L 2.476562 -3.328125 C 2.273438 -3.328125 1.824219 -3.261719 1.824219 -2.566406 L 1.824219 -0.765625 C 1.824219 -0.0664062 2.273438 0 2.476562 0 L 12.621094 0 C 13.859375 0 14.78125 -0.425781 15.367188 -1.261719 C 15.929688 -2.070312 16.222656 -3.128906 16.222656 -4.433594 L 16.222656 -6.414062 C 16.222656 -7.875 15.929688 -9.023438 15.34375 -9.832031 C 14.738281 -10.640625 13.835938 -11.070312 12.667969 -11.070312 Z M 12.667969 -11.070312 "/></g></g></g><g fill="#000000" fill-opacity="1"><g transform="translate(129.7185, 246.582581)"><g><path d="M 4.5 -18.539062 L 2.429688 -18.539062 C 2.25 -18.539062 1.800781 -18.449219 1.800781 -17.753906 L 1.800781 -0.765625 C 1.800781 -0.0664062 2.25 0.0234375 2.429688 0.0234375 L 4.5 0.0234375 C 4.679688 0.0234375 5.128906 -0.0664062 5.128906 -0.765625 L 5.128906 -17.753906 C 5.128906 -18.449219 4.679688 -18.539062 4.5 -18.539062 Z M 4.5 -18.539062 "/></g></g></g><g fill="#000000" fill-opacity="1"><g transform="translate(137.773492, 246.582581)"><g><path d="M 20.585938 -18.539062 L 18.5625 -18.539062 C 18.246094 -18.539062 18 -18.515625 17.773438 -18.449219 C 17.550781 -18.382812 17.347656 -18.269531 17.167969 -18.113281 C 17.011719 -17.933594 16.851562 -17.730469 16.71875 -17.460938 C 16.582031 -17.191406 16.46875 -16.851562 16.335938 -16.425781 L 12.351562 -6.480469 C 12.328125 -6.390625 12.308594 -6.390625 12.285156 -6.390625 L 12.058594 -6.390625 C 12.058594 -6.390625 12.015625 -6.390625 11.992188 -6.480469 L 8.03125 -16.425781 C 7.898438 -16.851562 7.761719 -17.191406 7.648438 -17.460938 C 7.515625 -17.730469 7.359375 -17.933594 7.199219 -18.113281 C 7.019531 -18.269531 6.796875 -18.382812 6.570312 -18.449219 C 6.34375 -18.515625 6.074219 -18.539062 5.78125 -18.539062 L 3.710938 -18.539062 C 2.949219 -18.539062 2.429688 -18.292969 2.160156 -17.820312 C 1.914062 -17.390625 1.800781 -16.671875 1.800781 -15.636719 L 1.800781 -0.765625 C 1.800781 -0.0664062 2.25 0.0234375 2.453125 0.0234375 L 4.386719 0.0234375 C 4.589844 0.0234375 5.015625 -0.0664062 5.015625 -0.765625 L 5.015625 -14.289062 C 5.015625 -14.308594 5.015625 -14.332031 5.015625 -14.332031 L 5.128906 -14.332031 C 5.152344 -14.332031 5.175781 -14.332031 5.199219 -14.265625 L 9.046875 -4.746094 C 9.203125 -4.273438 9.359375 -3.871094 9.515625 -3.53125 C 9.699219 -3.195312 9.878906 -2.925781 10.058594 -2.699219 C 10.28125 -2.476562 10.507812 -2.296875 10.777344 -2.203125 C 11.046875 -2.113281 11.339844 -2.070312 11.675781 -2.070312 L 12.601562 -2.070312 C 12.9375 -2.070312 13.253906 -2.113281 13.5 -2.203125 C 13.769531 -2.296875 14.015625 -2.476562 14.21875 -2.699219 C 14.398438 -2.925781 14.601562 -3.195312 14.761719 -3.53125 C 14.917969 -3.871094 15.074219 -4.273438 15.234375 -4.746094 L 19.101562 -14.289062 C 19.101562 -14.332031 19.125 -14.332031 19.148438 -14.332031 L 19.261719 -14.332031 C 19.261719 -14.332031 19.261719 -14.308594 19.261719 -14.289062 L 19.261719 -0.765625 C 19.261719 -0.0664062 19.710938 0.0234375 19.890625 0.0234375 L 21.824219 0.0234375 C 22.027344 0.0234375 22.476562 -0.0664062 22.476562 -0.765625 L 22.476562 -15.636719 C 22.476562 -16.671875 22.363281 -17.390625 22.117188 -17.820312 C 21.847656 -18.292969 21.328125 -18.539062 20.585938 -18.539062 Z M 20.585938 -18.539062 "/></g></g></g><g fill="#000000" fill-opacity="1"><g transform="translate(163.175964, 246.582581)"><g><path d="M 12.824219 -18.539062 L 2.429688 -18.539062 C 2.25 -18.539062 1.800781 -18.472656 1.800781 -17.753906 L 1.800781 -15.976562 C 1.800781 -15.277344 2.25 -15.210938 2.429688 -15.210938 L 12.238281 -15.210938 C 12.800781 -15.210938 13.207031 -15.050781 13.433594 -14.714844 C 13.679688 -14.378906 13.792969 -13.835938 13.792969 -13.09375 C 13.792969 -12.351562 13.679688 -11.8125 13.433594 -11.476562 C 13.207031 -11.136719 12.800781 -10.980469 12.238281 -10.980469 L 2.429688 -10.980469 C 2.25 -10.980469 1.800781 -10.914062 1.800781 -10.214844 L 1.800781 -0.765625 C 1.800781 -0.0664062 2.25 0.0234375 2.429688 0.0234375 L 4.5 0.0234375 C 4.679688 0.0234375 5.128906 -0.0664062 5.128906 -0.765625 L 5.128906 -7.648438 L 12.824219 -7.671875 C 14.355469 -7.671875 15.457031 -8.144531 16.132812 -9.089844 C 16.808594 -10.035156 17.121094 -11.386719 17.121094 -13.164062 L 17.121094 -13.027344 C 17.121094 -14.828125 16.808594 -16.175781 16.132812 -17.101562 C 15.457031 -18.066406 14.355469 -18.539062 12.824219 -18.539062 Z M 12.824219 -18.539062 "/></g></g></g><g fill="#000000" fill-opacity="1"><g transform="translate(183.223448, 246.582581)"><g><path d="M 14.78125 -3.328125 L 7.46875 -3.328125 C 6.996094 -3.328125 6.613281 -3.375 6.300781 -3.488281 C 6.03125 -3.578125 5.804688 -3.734375 5.648438 -3.984375 C 5.46875 -4.230469 5.332031 -4.566406 5.265625 -4.972656 C 5.175781 -5.421875 5.152344 -5.984375 5.152344 -6.660156 L 5.152344 -17.753906 C 5.152344 -18.472656 4.703125 -18.539062 4.523438 -18.539062 L 2.453125 -18.539062 C 2.25 -18.539062 1.800781 -18.472656 1.800781 -17.753906 L 1.800781 -7.042969 C 1.800781 -5.78125 1.914062 -4.703125 2.113281 -3.824219 C 2.316406 -2.925781 2.632812 -2.183594 3.082031 -1.621094 C 3.53125 -1.035156 4.117188 -0.609375 4.835938 -0.359375 C 5.511719 -0.113281 6.367188 0.0234375 7.359375 0.0234375 L 14.78125 0.0234375 C 14.984375 0.0234375 15.414062 -0.0664062 15.414062 -0.765625 L 15.414062 -2.542969 C 15.414062 -3.238281 14.984375 -3.328125 14.78125 -3.328125 Z M 14.78125 -3.328125 "/></g></g></g><g fill="#000000" fill-opacity="1"><g transform="translate(201.560933, 246.582581)"><g><path d="M 15.324219 -4.027344 L 7.402344 -4.027344 C 6.929688 -4.027344 6.546875 -4.09375 6.234375 -4.183594 C 5.941406 -4.296875 5.738281 -4.453125 5.558594 -4.679688 C 5.378906 -4.925781 5.242188 -5.265625 5.175781 -5.691406 C 5.152344 -5.804688 5.152344 -5.960938 5.128906 -6.074219 C 5.128906 -6.074219 5.152344 -7.695312 5.175781 -7.695312 L 15.234375 -7.695312 C 15.414062 -7.695312 15.863281 -7.785156 15.863281 -8.484375 L 15.863281 -10.261719 C 15.863281 -10.957031 15.414062 -11.023438 15.234375 -11.023438 L 3.621094 -11.003906 C 2.96875 -10.957031 2.40625 -10.621094 2.09375 -10.058594 C 1.980469 -9.878906 1.890625 -9.699219 1.84375 -9.496094 L 1.800781 -6.660156 L 1.800781 -6.546875 C 1.824219 -5.488281 1.933594 -4.589844 2.09375 -3.847656 C 2.296875 -2.949219 2.632812 -2.203125 3.058594 -1.640625 C 3.511719 -1.058594 4.09375 -0.652344 4.816406 -0.40625 C 5.511719 -0.136719 6.34375 -0.0234375 7.335938 -0.0234375 L 15.324219 -0.0234375 C 15.523438 -0.0234375 15.976562 -0.0898438 15.976562 -0.789062 L 15.976562 -3.261719 C 15.976562 -3.960938 15.523438 -4.027344 15.324219 -4.027344 Z M 15.34375 -18.585938 L 2.40625 -18.585938 C 2.226562 -18.585938 1.800781 -18.496094 1.800781 -17.773438 L 1.800781 -16.019531 C 1.800781 -15.324219 2.226562 -15.253906 2.40625 -15.253906 L 15.34375 -15.234375 C 15.523438 -15.234375 15.976562 -15.324219 15.976562 -16.019531 L 15.976562 -17.796875 C 15.976562 -18.496094 15.523438 -18.585938 15.34375 -18.585938 Z M 15.34375 -18.585938 "/></g></g></g><g fill="#000000" fill-opacity="1"><g transform="translate(220.460918, 246.582581)"><g/></g></g><g fill="#000000" fill-opacity="1"><g transform="translate(233.150905, 246.582581)"><g><path d="M 13.859375 -16.449219 C 13.816406 -16.558594 13.769531 -16.695312 13.726562 -16.785156 C 13.363281 -17.953125 12.285156 -18.789062 11.046875 -18.789062 C 10.484375 -18.789062 9.945312 -18.628906 9.496094 -18.316406 C 9.359375 -18.246094 9.246094 -18.15625 9.15625 -18.089844 C 8.820312 -17.796875 8.484375 -17.257812 8.167969 -16.449219 L 1.890625 -0.855469 C 1.824219 -0.652344 1.800781 -0.449219 1.84375 -0.316406 C 1.867188 -0.179688 1.980469 0.0234375 2.339844 0.0234375 L 4.816406 0.0234375 C 5.109375 0.0234375 5.332031 -0.15625 5.445312 -0.449219 L 6.726562 -3.667969 L 11.65625 -3.667969 C 11.902344 -3.667969 12.128906 -3.78125 12.238281 -3.984375 C 12.375 -4.164062 12.398438 -4.410156 12.328125 -4.636719 L 11.519531 -6.636719 C 11.40625 -6.90625 11.160156 -7.085938 10.867188 -7.085938 L 8.078125 -7.085938 L 10.957031 -14.378906 C 10.980469 -14.421875 11.003906 -14.445312 11.003906 -14.445312 L 11.09375 -14.445312 C 11.09375 -14.445312 11.09375 -14.445312 11.113281 -14.398438 L 16.695312 -0.472656 C 16.808594 -0.15625 17.03125 0.0234375 17.347656 0.0234375 L 19.753906 0.0234375 C 20.113281 0.0234375 20.203125 -0.203125 20.25 -0.316406 C 20.296875 -0.449219 20.273438 -0.652344 20.183594 -0.855469 Z M 13.859375 -16.449219 "/></g></g></g><g fill="#000000" fill-opacity="1"><g transform="translate(256.370885, 246.582581)"><g><path d="M 4.5 -18.539062 L 2.429688 -18.539062 C 2.25 -18.539062 1.800781 -18.449219 1.800781 -17.753906 L 1.800781 -0.765625 C 1.800781 -0.0664062 2.25 0.0234375 2.429688 0.0234375 L 4.5 0.0234375 C 4.679688 0.0234375 5.128906 -0.0664062 5.128906 -0.765625 L 5.128906 -17.753906 C 5.128906 -18.449219 4.679688 -18.539062 4.5 -18.539062 Z M 4.5 -18.539062 "/></g></g></g></svg>